<?xml version="1.0" standalone="no"?>
<!DOCTYPE svg PUBLIC "-//W3C//DTD SVG 1.1//EN" "http://www.w3.org/Graphics/SVG/1.1/DTD/svg11.dtd" >
<svg xmlns="http://www.w3.org/2000/svg">
<metadata>
This is a custom SVG webfont generated by Font Squirrel.
Copyright   : Digitized Data  1990 The Monotype Corporation  All rights reserved
Foundry     : Agfa Monotype Corporation
Foundry URL : httpwwwagfamonotypecom
</metadata>
<defs>
<font id="ArialNarrowMTStdRegular" horiz-adv-x="927" >
<font-face units-per-em="2048" ascent="1487" descent="-561" />
<missing-glyph horiz-adv-x="464" />
<glyph unicode=" "  horiz-adv-x="464" />
<glyph unicode="&#x09;" horiz-adv-x="464" />
<glyph unicode="&#xa0;" horiz-adv-x="464" />
<glyph unicode="!" horiz-adv-x="473" d="M145 1141v325h183v-325l-43 -776h-95zM152 0v205h170v-205h-170z" />
<glyph unicode="&#x22;" horiz-adv-x="593" d="M78 1227v239h168v-239l-39 -281h-88zM350 1227v239h168v-239l-41 -281h-88z" />
<glyph unicode="#" d="M18 401v148h162l62 364h-224v148h248l72 430h123l-72 -430h258l72 430h123l-72 -430h143v-148h-165l-62 -364h227v-148h-251l-72 -426h-125l72 426h-258l-72 -426h-123l72 426h-138zM303 549h258l62 364h-258z" />
<glyph unicode="$" d="M61 408l148 32q20 -160 74 -233q59 -78 135 -86v573q-74 16 -176 80q-156 98 -156 334q0 121 50 219t134 146q57 33 148 43v86h88v-86q145 -16 227 -119q74 -90 94 -244l-153 -27q-23 199 -168 238v-520l22 -6q135 -39 201 -99q127 -115 127 -321q0 -188 -97 -312 t-253 -135v-182h-88v180q-109 16 -172.5 55t-110.5 117q-66 111 -74 267zM233 1114q0 -178 185 -248v500q-86 -16 -135.5 -84t-49.5 -168zM506 121q90 14 144.5 93t54.5 194q0 102 -44.5 160.5t-154.5 101.5v-549z" />
<glyph unicode="%" horiz-adv-x="1486" d="M98 1100q0 180 67.5 285.5t182.5 105.5q121 0 192.5 -104.5t71.5 -282.5q0 -176 -70.5 -282.5t-187.5 -106.5q-119 0 -187.5 104.5t-68.5 280.5zM225 1104q0 -264 133 -264q125 0 125 264q0 262 -129 262t-129 -262zM354 -55l658 1546h121l-656 -1546h-123zM874 330 q0 180 69 285.5t183 105.5q121 0 192 -103.5t71 -283.5q0 -176 -70 -282.5t-186 -106.5q-119 0 -189 104.5t-70 280.5zM1004 334q0 -264 131 -264q127 0 127 264t-129 264t-129 -264z" />
<glyph unicode="&#x26;" horiz-adv-x="1120" d="M72 406q0 270 286 436q-135 190 -135 321q0 137 87 232.5t212 95.5q119 0 199 -90t80 -223q0 -209 -226 -357l216 -336q35 84 57 205l153 -39q-41 -190 -106 -317q76 -129 186 -225l-98 -144q-86 70 -184 207q-145 -197 -344 -197q-201 0 -310 175q-73 119 -73 256z M231 416q0 -88 50 -170q63 -111 174 -111q68 0 138.5 50.5t113.5 129.5l-273 410q-203 -149 -203 -309zM375 1182q0 -72 57 -152l66 -94q90 66 121.5 115t31.5 122.5t-39 121.5t-98 48q-57 0 -98 -46.5t-41 -114.5z" />
<glyph unicode="'" horiz-adv-x="315" d="M74 1221v245h168v-245l-39 -275h-92z" />
<glyph unicode="(" horiz-adv-x="559" d="M102 532q0 395 199 795q49 96 92 164h105l-11 -21q-123 -262 -168 -432q-68 -248 -67 -508q0 -481 246 -960h-105q-47 70 -96 172q-195 397 -195 790z" />
<glyph unicode=")" horiz-adv-x="559" d="M61 -430q244 475 244 960q0 305 -86 586q-37 117 -149 354l-9 21h105q43 -68 92 -164q199 -399 199 -795q0 -393 -195 -790q-49 -102 -96 -172h-105z" />
<glyph unicode="*" horiz-adv-x="647" d="M53 1196l37 143q12 -6 30.5 -14t34 -15t31.5 -16q57 -27 95 -53l-2 23q-14 172 -15 227h119q-2 -88 -16 -225l-5 -23q78 47 195 96l37 -143q-102 -41 -203 -55q18 -18 70 -90l57 -78l14 -21l-98 -86q-53 86 -102 195l-10 20l-9 -18q-55 -125 -100 -197l-96 86l12 15 l57 86q43 61 68 88q-107 26 -201 55z" />
<glyph unicode="+" horiz-adv-x="978" d="M92 639v168h328v399h139v-399h328v-168h-328v-401h-139v401h-328z" />
<glyph unicode="," horiz-adv-x="473" d="M139 -213q49 27 69.5 75t24.5 138h-83v205h167v-205q0 -115 -32.5 -182.5t-104.5 -106.5z" />
<glyph unicode="-" horiz-adv-x="559" d="M53 440v181h453v-181h-453z" />
<glyph unicode="." horiz-adv-x="473" d="M152 0v205h170v-205h-170z" />
<glyph unicode="/" horiz-adv-x="466" d="M0 -25l348 1516h119l-348 -1516h-119z" />
<glyph unicode="0" d="M70 727q0 745 393 746q240 0 334 -285q57 -178 57 -465q0 -291 -57 -463q-98 -285 -336 -285q-117 0 -203 74t-131 211q-57 178 -57 467zM221 725q0 -274 45 -418q25 -86 78 -135t121 -49q63 0 115.5 50t78.5 134q43 143 43 416q0 264 -43 418q-25 84 -79 133t-123 49 q-63 0 -114.5 -49t-76.5 -133q-45 -154 -45 -416z" />
<glyph unicode="1" d="M182 930v174q119 68 213 167t135 202h97v-1473h-148v1147q-55 -61 -143 -127q-97 -65 -154 -90z" />
<glyph unicode="2" d="M49 0v29q0 94 80 237q61 106 199 248l57 55q166 164 236.5 280t70.5 220q0 111 -64.5 182.5t-162.5 71.5q-76 0 -133.5 -43t-83.5 -115q-18 -55 -19 -137l-151 21q16 207 116.5 315.5t274.5 108.5q166 0 269.5 -114t103.5 -292q0 -131 -68.5 -258t-226.5 -291l-121 -125 q-129 -133 -172 -221h590v-172h-795z" />
<glyph unicode="3" d="M72 387l147 25q10 -74 31 -129q29 -74 82 -117t119 -43q106 0 177.5 88t71.5 219q0 123 -66.5 203t-168.5 80q-41 0 -103 -19l17 158l22 -2q109 0 177.5 68.5t68.5 177.5q0 100 -55 163.5t-141 63.5q-90 0 -146.5 -68.5t-71.5 -195.5l-147 33q27 180 122 280.5t241 100.5 q150 0 250 -110t100 -271q0 -207 -166 -297q68 -18 106 -56q119 -106 119 -307q0 -195 -116.5 -326t-288.5 -131q-158 0 -262.5 113t-118.5 299z" />
<glyph unicode="4" d="M23 350v166l546 950h121v-950h164v-166h-164v-350h-147v350h-520zM166 516h377v662h-4z" />
<glyph unicode="5" d="M70 385l155 14q16 -131 76.5 -203.5t153.5 -72.5q113 0 184.5 101.5t71.5 258.5q0 150 -71 240t-187 90q-145 0 -217 -141l-140 20l117 754h598v-172h-479l-66 -393q109 92 228 92q162 0 267 -135.5t105 -339.5q0 -227 -115.5 -375t-293.5 -148q-164 0 -268.5 111 t-118.5 299z" />
<glyph unicode="6" d="M63 686q0 385 110 586t321 201q143 0 233 -96.5t109 -268.5l-148 -16q-10 66 -22 96q-23 59 -72 97t-109 38q-90 0 -156.5 -81t-97.5 -226q-20 -90 -20 -260h4q94 195 287 194q152 0 254 -135t102 -340q0 -217 -106.5 -358.5t-270.5 -141.5q-115 0 -211 71t-143 192 q-64 172 -64 448zM233 479q0 -154 71 -255t179 -101q96 0 160 98t64 243.5t-66 237t-168 91.5t-171 -90.5t-69 -223.5z" />
<glyph unicode="7" d="M80 1274v172h778v-139q-86 -113 -158 -250q-221 -434 -280 -844q-12 -84 -19 -213h-153q6 328 137 707q115 336 285 567h-590z" />
<glyph unicode="8" d="M70 424q0 201 110 305q41 41 117 66q-180 82 -180 299q0 166 97 272.5t248.5 106.5t250 -109t98.5 -274q0 -213 -176 -295q225 -90 225 -377q0 -193 -111.5 -318t-283.5 -125q-174 0 -284.5 126t-110.5 323zM219 422q0 -129 70.5 -214t177 -85t174.5 83t68 212t-71 214 t-177 85q-102 0 -172 -85t-70 -210zM268 1093.5q0 -98.5 56.5 -164t140.5 -65.5t139 64.5t55 161.5q0 100 -56 166.5t-140 66.5t-139.5 -65.5t-55.5 -164z" />
<glyph unicode="9" d="M70 977q0 217 106.5 356.5t272.5 139.5q88 0 168.5 -47.5t132.5 -129.5q57 -92 79 -188q31 -150 31 -342q0 -365 -90 -555q-111 -236 -340 -236q-143 0 -232 95.5t-106 269.5l141 14q37 -231 201 -231q68 0 124 42t87 118q68 162 68 372v35h-4q-41 -86 -118 -139 t-161 -53q-158 0 -259 134t-101 345zM221 971q0 -137 68.5 -226.5t173 -89.5t169 91.5t64.5 236.5q0 147 -65.5 243.5t-165.5 96.5q-102 0 -173 -102.5t-71 -249.5z" />
<glyph unicode=":" horiz-adv-x="473" d="M152 0v205h170v-205h-170zM152 856v205h170v-205h-170z" />
<glyph unicode=";" horiz-adv-x="473" d="M139 -213q49 27 69.5 75t24.5 138h-83v205h167v-205q0 -115 -32.5 -182.5t-104.5 -106.5zM150 856v205h167v-205h-167z" />
<glyph unicode="&#x3c;" horiz-adv-x="978" d="M92 641v168l795 410v-179l-631 -315l631 -319v-179z" />
<glyph unicode="=" horiz-adv-x="978" d="M92 418v166h795v-166h-795zM92 862v168h795v-168h-795z" />
<glyph unicode="&#x3e;" horiz-adv-x="978" d="M92 227v179l631 319l-631 315v179l795 -410v-168z" />
<glyph unicode="?" d="M74 1067q20 207 121.5 315.5t271.5 108.5q164 0 273.5 -113.5t109.5 -285.5q0 -102 -39 -182.5t-141 -192.5q-94 -100 -116 -155.5t-26 -201.5h-141v54q0 139 43 235q37 76 148 193q70 76 95 125t25 112q0 106 -68.5 185t-162.5 79q-201 0 -242 -296zM379 0v205h168v-205 h-168z" />
<glyph unicode="@" horiz-adv-x="1697" d="M92 467q0 211 62.5 409.5t173.5 342.5q213 274 579 274q297 0 494 -215q205 -225 205 -563q0 -172 -61.5 -328t-174.5 -268q-123 -123 -258 -123q-117 0 -147 90q-6 18 -13 78q-117 -166 -247 -166q-129 0 -215.5 128t-86.5 320q0 244 132.5 440.5t295.5 196.5 q156 0 244 -184h4l27 156h147l-118 -672l-13 -70q-12 -63 -12 -84q0 -29 16.5 -48t40.5 -19q63 0 158 104q158 180 158 453q0 268 -167 448.5t-417 180.5q-346 0 -541 -316q-145 -229 -145 -551q0 -385 205 -583q88 -84 221 -132.5t283 -48.5q193 0 342 79t233 222h148 q-41 -104 -138 -206q-227 -242 -585 -242q-393 0 -607 235q-223 248 -223 662zM555 430q0 -123 50 -204t128 -81q113 0 205 155t92 347q0 131 -52 210t-138 79q-125 0 -209 -178q-76 -162 -76 -328z" />
<glyph unicode="A" horiz-adv-x="1120" d="M-2 0l461 1466h172l491 -1466h-180l-141 444h-502l-133 -444h-168zM344 602h408l-125 406q-57 184 -84 305h-4q-4 -53 -17 -101q-20 -96 -45 -180z" />
<glyph unicode="B" horiz-adv-x="1120" d="M123 0v1466h452q137 0 216 -43q82 -43 132 -133t50 -198q0 -209 -168 -312q225 -82 225 -358q0 -123 -51 -224.5t-137 -146.5q-96 -51 -260 -51h-459zM283 172h299q123 0 182 37q102 57 102 215q0 160 -114 221q-63 33 -191 33h-278v-506zM283 850h260q127 0 182 31 q92 49 92 186q0 162 -108 205q-53 20 -187 20h-239v-442z" />
<glyph unicode="C" horiz-adv-x="1206" d="M82 743q0 340 154.5 544t414.5 204q178 0 302 -111.5t171 -316.5l-155 -45q-41 158 -119 232.5t-203 74.5q-188 0 -293.5 -153.5t-105.5 -428.5q0 -319 117 -467q104 -135 270 -135q96 0 175 52.5t124 144.5q33 74 53 176l158 -49q-51 -242 -180 -366t-328 -124 q-281 0 -424 234q-131 208 -131 534z" />
<glyph unicode="D" horiz-adv-x="1206" d="M129 0v1466h414q139 0 221 -22q168 -51 263 -236.5t95 -464.5q0 -408 -180 -604q-70 -74 -158 -106.5t-221 -32.5h-434zM289 172h256q115 0 184.5 25.5t114.5 85.5q115 147 114 462q0 295 -116 441q-51 63 -112.5 84.5t-188.5 21.5h-252v-1120z" />
<glyph unicode="E" horiz-adv-x="1120" d="M133 0v1466h871v-174h-711v-448h663v-172h-663v-500h737v-172h-897z" />
<glyph unicode="F" horiz-adv-x="1032" d="M137 0v1466h811v-174h-651v-454h563v-172h-563v-666h-160z" />
<glyph unicode="G" horiz-adv-x="1312" d="M90 725q0 358 174 573q156 193 428 193q156 0 270.5 -70.5t172.5 -199.5q27 -61 49 -164l-144 -49q-20 86 -41 131q-41 88 -122.5 137t-188.5 49q-233 0 -348 -203q-86 -156 -86 -385q0 -295 123 -442q123 -145 319 -145q131 0 262 83q53 33 89 68v274h-355v173h510v-543 q-231 -229 -500 -230q-276 0 -444 205t-168 545z" />
<glyph unicode="H" horiz-adv-x="1206" d="M131 0v1466h160v-602h624v602h160v-1466h-160v690h-624v-690h-160z" />
<glyph unicode="I" horiz-adv-x="473" d="M158 0v1466h159v-1466h-159z" />
<glyph unicode="J" horiz-adv-x="839" d="M45 393v23l143 24q2 -111 25 -172q37 -121 156 -121q53 0 97 31t60 80q20 61 21 199v1009h160v-999q0 -174 -39 -289q-33 -94 -113 -148.5t-186 -54.5q-203 0 -275 166q-49 115 -49 252z" />
<glyph unicode="K" horiz-adv-x="1120" d="M123 0v1466h160v-727h4l594 727h215l-506 -594l528 -872h-211l-428 741l-196 -233v-508h-160z" />
<glyph unicode="L" d="M123 0v1466h160v-1294h591v-172h-751z" />
<glyph unicode="M" horiz-adv-x="1398" d="M125 0v1466h240l284 -1038l27 -104q25 -92 29 -113h4q14 70 34 139l27 96l289 1020h213v-1466h-154v1227h-4l-346 -1227h-143l-342 1247h-4v-1247h-154z" />
<glyph unicode="N" horiz-adv-x="1206" d="M127 0v1466h164l627 -1151h4v1151h153v-1466h-164l-626 1151h-4v-1151h-154z" />
<glyph unicode="O" horiz-adv-x="1312" d="M82 729q0 342 158.5 552t416.5 210q256 0 415 -210t159 -550q0 -336 -159 -546t-415 -210q-254 0 -414.5 211t-160.5 543zM246 729q0 -238 82 -381q115 -207 327 -207q188 0 300 161t112 433q0 270 -106 424q-119 166 -302 166q-193 0 -303 -158.5t-110 -437.5z" />
<glyph unicode="P" horiz-adv-x="1120" d="M129 0v1466h455q178 0 262 -39q94 -43 147.5 -146t53.5 -241q0 -133 -50.5 -236.5t-138.5 -152.5q-96 -55 -262 -55h-307v-596h-160zM289 768h311q283 0 283 266q0 84 -32 147.5t-89 90.5q-39 20 -166 20h-307v-524z" />
<glyph unicode="Q" horiz-adv-x="1312" d="M74 731q0 340 158.5 550t416.5 210q256 0 415 -210t159 -546q0 -369 -181 -577q10 -10 82 -64q63 -47 121 -74l-47 -135q-131 59 -258 181q-133 -90 -293 -91q-254 0 -413.5 211t-159.5 545zM238 733q0 -272 111.5 -432t301.5 -160q84 0 160 39q-80 61 -158 84l37 142 q139 -47 228 -142q141 158 141 471q0 272 -109 424q-117 166 -299 166q-193 0 -303 -159t-110 -433z" />
<glyph unicode="R" horiz-adv-x="1206" d="M131 0v1466h533q164 0 241 -39q88 -43 138.5 -139t50.5 -221q0 -168 -87 -269.5t-253 -127.5v-4q68 -37 104 -82q63 -72 123 -185l211 -399h-201l-160 305q-70 131 -94 170q-68 111 -117 143.5t-145 32.5h-184v-651h-160zM291 819h342q129 0 192 37q104 63 105 209 q0 135 -94 199q-55 41 -164 41h-381v-486z" />
<glyph unicode="S" horiz-adv-x="1120" d="M76 471l151 16q8 -96 33 -149q37 -86 124 -137t196 -51q137 0 218 67.5t81 181.5q0 125 -93 179q-39 27 -87 44t-183 58q-207 59 -283 133q-111 104 -110 274q0 182 116.5 293t307.5 111q203 0 323.5 -117t126.5 -321l-153 -15q-25 281 -293 281q-127 0 -202 -58.5 t-75 -158.5q0 -94 58.5 -141.5t228.5 -94.5q231 -63 320 -127q152 -113 151 -323q0 -170 -102 -295q-117 -145 -361 -146q-223 0 -356 133.5t-137 362.5z" />
<glyph unicode="T" horiz-adv-x="1032" d="M39 1292v174h954v-174h-399v-1292h-158v1292h-397z" />
<glyph unicode="U" horiz-adv-x="1206" d="M131 618v848h160v-845q0 -184 33 -291q25 -84 98.5 -132t173.5 -48q233 0 291 180q31 100 31 291v845h159v-848q0 -246 -53 -385q-47 -123 -155.5 -190.5t-258.5 -67.5q-160 0 -270.5 67t-155.5 191q-53 145 -53 385z" />
<glyph unicode="V" horiz-adv-x="1120" d="M8 1466h172l314 -1065l22 -79l29 -115l8 -45h4q27 123 64 239l323 1065h164l-471 -1466h-164z" />
<glyph unicode="W" horiz-adv-x="1591" d="M20 1466h164l183 -962q35 -188 45 -262l4 -37h4l6 45l25 127l20 100l229 989h193l172 -741q68 -295 92 -520h4q20 154 56 319l190 942h160l-330 -1466h-154l-254 1116l-24 109l-10 65h-4q-18 -102 -35 -174l-254 -1116h-162z" />
<glyph unicode="X" horiz-adv-x="1120" d="M8 0l465 764l-410 702h189l219 -376q57 -100 96 -181q6 16 35 68q10 16 33 53q8 14 14 25.5t9.5 15.5t3.5 6l243 389h172l-422 -690l455 -776h-197l-303 522q-37 70 -51 99l-10 -19l-49 -92l-301 -510h-191z" />
<glyph unicode="Y" horiz-adv-x="1120" d="M4 1466h195l235 -442q66 -121 123 -248q12 29 64 129q47 92 69 129l232 432h186l-481 -845v-621h-158v621z" />
<glyph unicode="Z" horiz-adv-x="1032" d="M33 0v180l616 938q68 104 125 174h-672v174h863v-174l-676 -1016l-53 -75l-19 -29h766v-172h-950z" />
<glyph unicode="[" horiz-adv-x="473" d="M115 -408v1874h325v-149h-178v-1575h178v-150h-325z" />
<glyph unicode="\" horiz-adv-x="466" d="M0 1491h119l348 -1516h-119z" />
<glyph unicode="]" horiz-adv-x="473" d="M33 -258h178v1575h-178v149h325v-1874h-325v150z" />
<glyph unicode="^" horiz-adv-x="788" d="M45 690l289 801h119l290 -801h-147l-201 598h-4l-194 -598h-152z" />
<glyph unicode="_" horiz-adv-x="1024" d="M-14 -152h1050v-102h-1050v102z" />
<glyph unicode="`" horiz-adv-x="559" d="M74 1475h196l111 -281h-119z" />
<glyph unicode="a" d="M61 279q0 201 160 284q59 31 182 49q84 10 166 31q49 12 99 31v45q0 109 -39 153q-55 66 -168 66q-154 0 -203 -107q-16 -39 -27 -96l-145 23q16 92 39 137q88 190 356 190q217 0 293 -131q33 -55 39 -139q4 -45 4 -129v-242v-225q2 -123 45 -219h-153q-23 57 -29 131 q-150 -156 -322 -156q-135 0 -216 83.5t-81 220.5zM217 285q0 -76 48 -122t130 -46q160 0 236 141q37 72 37 209v65q-29 -14 -88 -30q-98 -27 -154 -37q-115 -20 -154 -53q-55 -45 -55 -127z" />
<glyph unicode="b" d="M111 0v1466h147v-524h4q84 143 234 143q168 0 268 -149.5t100 -396.5q0 -268 -112 -416q-111 -147 -264.5 -147.5t-235.5 157.5h-4v-133h-137zM246 512q0 -145 35 -233q66 -154 200 -154q104 0 169 111.5t65 295.5q0 188 -63.5 297t-172.5 109q-96 0 -162 -100 q-71 -109 -71 -326z" />
<glyph unicode="c" horiz-adv-x="839" d="M66 532q0 289 122 429q106 125 275 124q94 0 173 -45t120 -120q37 -61 53 -170l-143 -27q-41 215 -197 215q-121 0 -186.5 -105.5t-65.5 -297.5q0 -199 62.5 -304.5t181.5 -105.5q63 0 114.5 38t75.5 101q18 49 27 125l145 -22q-23 -184 -120 -288t-246 -104 q-182 0 -286.5 148.5t-104.5 408.5z" />
<glyph unicode="d" d="M57 530q0 254 100.5 404.5t270.5 150.5q154 0 234 -145h4v526h147v-1466h-137v135h-4q-76 -160 -236 -160q-168 0 -273.5 155.5t-105.5 399.5zM209 528q0 -176 53 -276q70 -127 184 -127q106 0 169 104.5t63 280.5q0 205 -63.5 316.5t-178.5 111.5q-106 0 -166.5 -110 t-60.5 -300z" />
<glyph unicode="e" d="M61 520q0 260 111 412.5t297 152.5q180 0 287.5 -150.5t107.5 -402.5v-47h-651q10 -170 79.5 -265t184.5 -95q168 0 230 217l151 -23q-37 -168 -135 -256t-248 -88q-193 0 -303.5 145.5t-110.5 399.5zM221 633h488q-4 76 -23 135q-25 76 -85 123t-134 47q-100 0 -169 -85 t-77 -220z" />
<glyph unicode="f" horiz-adv-x="473" d="M16 922v139h131v115q0 127 27 192q53 123 213 123q57 0 137 -18l-20 -158q-43 10 -88 10q-70 0 -96.5 -35t-26.5 -129v-100h170v-139h-170v-922h-146v922h-131z" />
<glyph unicode="g" d="M53 539q0 248 104.5 397t274.5 149q156 0 250 -151h4v127h135v-918q0 -131 -12 -225q-14 -96 -45 -158.5t-88 -109.5q-96 -80 -246 -80q-160 0 -253 86t-93 233v23l143 -27q4 -53 27 -90q51 -78 172 -78q152 0 209 113q37 80 37 248v61h-4q-90 -139 -236 -139 q-168 0 -273.5 149.5t-105.5 389.5zM205 539q0 -182 63.5 -285.5t175.5 -103.5q102 0 174 100q66 94 66 293q0 182 -66.5 288.5t-179.5 106.5q-92 0 -162 -94q-71 -104 -71 -305z" />
<glyph unicode="h" d="M111 0v1466h147v-526h4q96 145 258 145q88 0 158 -40.5t100 -108.5q41 -88 41 -264v-672h-147v672q0 123 -35 180q-47 78 -150 78q-59 0 -113.5 -35t-80.5 -92q-35 -76 -35 -221v-582h-147z" />
<glyph unicode="i" horiz-adv-x="366" d="M111 0v1061h147v-1061h-147zM111 1260v206h147v-206h-147z" />
<glyph unicode="j" horiz-adv-x="366" d="M-78 -412l29 154q39 -14 69 -14q43 0 63.5 30.5t22.5 102.5l5 86v1114h147v-1118q0 -147 -22 -228q-43 -145 -197 -145q-60 0 -117 18zM111 1257v209h147v-209h-147z" />
<glyph unicode="k" horiz-adv-x="839" d="M111 0v1466h147v-835h4l346 430h191l-332 -393l367 -668h-183l-289 543l-104 -121v-422h-147z" />
<glyph unicode="l" horiz-adv-x="366" d="M106 0v1466h148v-1466h-148z" />
<glyph unicode="m" horiz-adv-x="1398" d="M111 0v1061h131v-148h4q86 172 260 172q193 0 246 -186q104 186 270 186q80 0 143.5 -39.5t91.5 -109.5q33 -76 33 -207v-729h-147v670q0 109 -15 153q-33 106 -141 107q-53 0 -100 -30t-74 -81q-39 -76 -39 -203v-616h-147v690q0 109 -23 158q-37 82 -131 82 q-57 0 -107.5 -34t-72.5 -89q-35 -84 -35 -256v-551h-147z" />
<glyph unicode="n" d="M111 0v1061h133v-150h4q90 174 274 174q88 0 158 -42t100 -113q25 -53 32 -105.5t7 -171.5v-653h-147v645q0 139 -33 201q-43 84 -150 84q-63 0 -119.5 -37t-80.5 -96q-31 -84 -31 -217v-580h-147z" />
<glyph unicode="o" d="M55 530q0 260 103 398q117 158 305 157q219 0 338 -204q72 -131 71 -338q0 -270 -102 -410q-117 -158 -307 -158q-104 0 -192.5 54.5t-143.5 150.5q-72 131 -72 350zM207 530q0 -190 69.5 -297.5t190.5 -107.5q117 0 185.5 109.5t68.5 295.5q0 193 -69.5 300.5 t-190.5 107.5q-117 0 -185.5 -111t-68.5 -297z" />
<glyph unicode="p" d="M111 -408v1469h135v-137h4q88 162 248 161q168 0 268 -148.5t100 -395.5q0 -250 -105.5 -408t-273.5 -158q-141 0 -225 136h-4v-519h-147zM244 512q0 -178 63.5 -282.5t171.5 -104.5q96 0 162 94q76 104 76 318q0 190 -63.5 298.5t-174.5 108.5q-92 0 -162 -104 q-73 -117 -73 -328z" />
<glyph unicode="q" d="M59 541q0 248 100.5 396t268.5 148q162 0 248 -165h4v141h133v-1469h-147v521h-4q-33 -61 -93.5 -99.5t-126.5 -38.5q-170 0 -276.5 158t-106.5 408zM211 530q0 -186 65.5 -295.5t178.5 -109.5q100 0 166 111q59 100 59 276q0 199 -65.5 315.5t-178.5 116.5 q-94 0 -157 -98q-68 -103 -68 -316z" />
<glyph unicode="r" horiz-adv-x="559" d="M109 0v1061h133v-160h4q29 74 55 111q51 74 129 73q74 0 152 -57l-52 -166q-55 39 -106 39q-168 0 -168 -344v-557h-147z" />
<glyph unicode="s" horiz-adv-x="839" d="M51 317l146 27q29 -221 225 -221q90 0 145.5 47t55.5 123q0 53 -32 85t-114 58l-98 29q-139 43 -199 88q-104 72 -104 227q0 139 89 222t238 83q113 0 195 -47t115 -129q18 -47 28 -121l-143 -24q-23 174 -190 174q-88 0 -138.5 -37t-50.5 -100.5t51 -98.5 q35 -20 154 -57q156 -51 217 -84q133 -70 133 -246q0 -154 -98 -247t-262 -93q-312 0 -363 342z" />
<glyph unicode="t" horiz-adv-x="473" d="M31 922v139h106v264l148 109v-373h149v-139h-149v-621q0 -80 10 -104q18 -43 74 -43q27 0 65 8l21 -160q-63 -16 -111 -16q-156 0 -188 116q-18 63 -19 209v611h-106z" />
<glyph unicode="u" d="M109 403v658h147v-588q0 -160 12 -211q16 -59 61.5 -95t106.5 -36q63 0 120.5 40t80.5 101q29 74 29 222v567h147v-1061h-131v156h-4q-96 -180 -275 -181q-84 0 -154.5 43t-101.5 113q-25 53 -31.5 106t-6.5 166z" />
<glyph unicode="v" horiz-adv-x="839" d="M20 1061h156l189 -635q35 -117 53 -215h4q12 70 53 203l193 647h151l-330 -1061h-137z" />
<glyph unicode="w" horiz-adv-x="1206" d="M4 1061h154l139 -612l12 -64l27 -109l10 -55h4l8 55l17 82l18 82l137 621h152l131 -615l16 -75q16 -72 25 -127h4q8 41 27 118l22 87l150 612h143l-272 -1061h-154l-139 637l-29 156l-2 24h-4l-174 -817h-156z" />
<glyph unicode="x" horiz-adv-x="839" d="M12 0l318 553l-293 508h184l133 -248q20 -37 62 -119q39 70 65 117l148 250h176l-301 -498l323 -563h-180l-180 330l-29 55l-18 35l-230 -420h-178z" />
<glyph unicode="y" horiz-adv-x="839" d="M27 1061h159l183 -615q35 -123 59 -245h4q25 129 60 243l186 617h147l-331 -1079l-31 -101q-53 -172 -112.5 -241.5t-151.5 -69.5q-45 0 -95 20l-16 170q49 -16 84 -16q80 0 119 61q23 33 53 150l14 43z" />
<glyph unicode="z" horiz-adv-x="839" d="M33 0v145l555 777q-104 -6 -168 -7h-354v146h712v-117l-471 -674l-74 -98l-18 -27q90 8 186 9h402v-154h-770z" />
<glyph unicode="{" horiz-adv-x="559" d="M47 449v163q49 0 78 21q57 41 73.5 109.5t18.5 256.5q0 168 4 213q14 182 103 244q49 35 151 35h47v-156h-26q-88 0 -115 -40t-27 -167v-147q0 -205 -35.5 -299t-136.5 -152q96 -49 134 -148t38 -302v-148q0 -127 27 -166.5t115 -39.5h26v-156h-47q-94 0 -135 24 q-94 55 -113 195q-6 47 -10 145v76v51q-2 188 -19.5 258t-72.5 107q-31 23 -78 23z" />
<glyph unicode="|" horiz-adv-x="438" d="M156 -430v1921h127v-1921h-127z" />
<glyph unicode="}" horiz-adv-x="559" d="M37 -274h26q88 0 115 39.5t27 166.5v148q-2 201 37 301t135 149q-102 59 -138 152.5t-34 298.5v147q0 127 -26.5 167t-115.5 40h-26v156h47q94 0 135 -25q94 -57 113 -196q6 -45 10 -144v-75v-52q2 -186 19.5 -256.5t72.5 -109.5q33 -20 78 -21v-163q-49 0 -78 -23 q-57 -39 -73.5 -108.5t-18.5 -256.5q0 -168 -4 -215q-14 -180 -102 -241q-49 -35 -152 -35h-47v156z" />
<glyph unicode="~" horiz-adv-x="980" d="M72 557v205q86 121 227 121q88 0 225 -70l66 -35q55 -31 108 -30q104 0 213 137v-211q-102 -115 -227 -115q-92 0 -201 62l-51 26q-76 45 -145 45q-57 0 -103 -28.5t-112 -106.5z" />
<glyph unicode="&#xa1;" horiz-adv-x="559" d="M188 -80l43 776h95l45 -776v-323h-183v323zM195 856v205h170v-205h-170z" />
<glyph unicode="&#xa2;" d="M88 530q0 289 123 431q109 125 268 124l78 -6l92 387l90 -32l-92 -387q152 -78 187 -297l-144 -27q-23 113 -80 170l-182 -766q29 -6 51 -8q92 4 150.5 74.5t72.5 195.5l148 -20q-16 -104 -51 -176q-49 -102 -134 -161t-184 -59q-45 0 -84 13l-96 -396l-92 33l94 397 q-102 59 -158.5 192.5t-56.5 317.5zM240 539q0 -270 102 -363l182 764l-41 2q-115 0 -179 -107.5t-64 -295.5z" />
<glyph unicode="&#xa3;" d="M23 145q66 45 120 129q68 104 68 263q0 55 -14 125h-160v147h125l-8 37q-33 141 -33 231q0 182 104.5 298t268.5 116q150 0 245 -99.5t117 -279.5l-147 -27q-12 119 -70.5 188.5t-146.5 69.5q-90 0 -151.5 -71.5t-61.5 -173.5q0 -109 47 -289h258v-147h-234 q14 -37 17 -87q-2 -104 -48 -221q-29 -74 -98 -159l4 -5q59 23 113 23q74 0 154 -25q133 -41 190 -41q61 0 158 56l49 -166q-123 -61 -199 -62q-61 0 -115 21l-122 45q-63 25 -123 25q-133 0 -250 -95z" />
<glyph unicode="&#xa4;" d="M61 354l113 135q-57 109 -57 236t57 236l-113 137l95 119l114 -140q84 72 193 72q111 0 194 -72l115 140l94 -119l-112 -137q57 -115 57 -236t-57 -236l112 -135l-94 -118l-115 139q-82 -72 -194 -72q-111 0 -193 72l-114 -139zM250 724.5q0 -106.5 62.5 -182 t150.5 -75.5t150.5 75.5t62.5 182t-62.5 183.5t-150.5 77t-150.5 -77t-62.5 -183.5z" />
<glyph unicode="&#xa5;" d="M-2 1466h164l237 -516q45 -98 60 -153h4q20 59 67 161l224 508h176l-332 -710h279v-150h-338v-143h338v-137h-338v-326h-148v326h-340v137h340v143h-340v150h281z" />
<glyph unicode="&#xa6;" horiz-adv-x="438" d="M156 360h127v-790h-127v790zM156 700v791h127v-791h-127z" />
<glyph unicode="&#xa7;" d="M68 645q0 98 49 174t135 109q-106 123 -107 248q0 145 105 243q78 72 201 72q147 0 233 -88t104 -258l-153 -21q-6 51 -21 101q-39 119 -157 118q-70 0 -118 -47t-48 -114q0 -66 54 -126.5t226 -187.5q172 -129 224 -202q63 -88 63 -203q0 -154 -98 -232q-29 -25 -88 -53 q129 -121 129 -280q0 -145 -92.5 -236.5t-237.5 -91.5q-152 0 -243 93t-111 267l149 25q23 -127 71 -180.5t138 -53.5q78 0 128 49.5t50 125.5q0 72 -69 141q-76 72 -238 196q-98 76 -151 123q-127 121 -127 289zM201 664q0 -70 44 -128.5t163 -144.5q104 -74 190 -147 q121 76 121 186q0 68 -50.5 130.5t-176.5 158.5q-115 86 -168 139q-123 -85 -123 -194z" />
<glyph unicode="&#xa8;" horiz-adv-x="559" d="M49 1270v205h154v-205h-154zM356 1270v205h154v-205h-154z" />
<glyph unicode="&#xa9;" horiz-adv-x="1241" d="M2 737q0 311 181.5 532.5t437.5 221.5t437 -221t181 -533q0 -313 -181 -534t-437 -221t-437.5 221t-181.5 534zM104 737q0 -260 152 -445.5t365 -185.5t364.5 185.5t151.5 445.5t-151.5 444.5t-364.5 184.5t-365 -184.5t-152 -444.5zM297 733q0 199 89 312.5t243 113.5 q106 0 178 -61.5t100 -173.5l-98 -29q-47 154 -184 154q-100 0 -157.5 -87.5t-57.5 -234.5q0 -139 55 -222t149 -83q76 0 131.5 51t73.5 141l101 -36q-25 -127 -105 -201t-192 -74q-150 0 -238 117.5t-88 312.5z" />
<glyph unicode="&#xaa;" horiz-adv-x="628" d="M39 965q0 131 94 182q39 20 131 37l68 10l53 12q6 2 24.5 6.5t28.5 8.5q-2 74 -12 92q-23 61 -117 61q-123 0 -137 -125l-113 35q8 59 41 109q66 98 215 98q240 0 240 -242v-239v-60q0 -135 33 -186h-121q-16 39 -18 88q-100 -106 -209 -107q-90 0 -145.5 61t-55.5 159z M160 965q0 -43 29.5 -71t76.5 -28q104 0 152 103q18 37 18 112v23q-37 -12 -135 -31l-45 -8q-96 -18 -96 -100z" />
<glyph unicode="&#xab;" d="M111 528l260 457h123l-215 -457l213 -456h-121zM432 528l256 457h125l-217 -457l217 -456h-125z" />
<glyph unicode="&#xac;" horiz-adv-x="978" d="M92 862v168h795v-606h-139v438h-656z" />
<glyph unicode="&#xad;" horiz-adv-x="559" d="M53 440v181h453v-181h-453z" />
<glyph unicode="&#xae;" horiz-adv-x="1241" d="M2 737q0 311 181.5 532.5t437.5 221.5t437 -221t181 -533q0 -313 -181 -534t-437 -221t-437.5 221t-181.5 534zM104 737q0 -260 152 -445.5t365 -185.5t364.5 185.5t151.5 445.5t-151.5 444.5t-364.5 184.5t-365 -184.5t-152 -444.5zM348 319v811h230q127 0 180 -26 q47 -25 75.5 -78t28.5 -115q0 -92 -53 -156.5t-137 -70.5v-4q39 -16 65 -51q47 -63 90 -152l80 -158h-129l-59 127q-66 137 -101.5 177.5t-97.5 40.5h-63v-345h-109zM457 776h131q76 0 104 19q55 27 55.5 104.5t-55.5 106.5q-31 14 -112 14h-123v-244z" />
<glyph unicode="&#xaf;" horiz-adv-x="559" d="M25 1227v149h512v-149h-512z" />
<glyph unicode="&#xb0;" horiz-adv-x="665" d="M104 1214.5q0 114.5 67 195.5t161 81q96 0 162.5 -81t66.5 -195.5t-67.5 -196.5t-161.5 -82t-161 82t-67 196.5zM195 1214.5q0 -69.5 39.5 -120t97 -50.5t98.5 49.5t41 120.5q0 70 -41 119t-98.5 49t-97 -49t-39.5 -118.5z" />
<glyph unicode="&#xb1;" horiz-adv-x="978" d="M92 0v168h795v-168h-795zM92 664v165h328v400h139v-400h328v-165h-328v-404h-139v404h-328z" />
<glyph unicode="&#xb2;" horiz-adv-x="559" d="M20 733q12 131 211 307q127 113 152 154q16 29 16 61q0 51 -30.5 81t-84 30t-80 -23.5t-44.5 -89.5l-123 15q25 115 84 166t166 51q115 0 177 -54.5t62 -152.5q0 -78 -40 -142.5t-148 -162.5l-53 -45q-43 -41 -72 -74h317v-121h-510z" />
<glyph unicode="&#xb3;" horiz-adv-x="559" d="M27 930l120 14q10 -43 23 -59q31 -53 102 -54q55 0 92 38t37 96q0 111 -131 110h-16l-25 -2h-4l19 109h6q55 0 89 27.5t34 74.5q0 41 -27 65.5t-72 24.5q-47 0 -72.5 -22.5t-43.5 -79.5l-117 22q35 109 85 150t150 41q106 0 165 -49.5t59 -137.5q0 -125 -113 -159v-4 q143 -41 143 -189q0 -102 -69.5 -166.5t-177.5 -64.5q-219 0 -256 215z" />
<glyph unicode="&#xb4;" horiz-adv-x="559" d="M182 1194l109 281h194l-180 -281h-123z" />
<glyph unicode="&#xb5;" d="M111 -408v1469h147v-449v-71q0 -137 13.5 -208t47.5 -120q51 -76 140 -76q78 0 131 58q47 51 63.5 121.5t16.5 224.5v69v451h145v-1061h-131v125h-4q-39 -80 -89 -115t-126 -35q-70 0 -115 30t-88 101h-4v-514h-147z" />
<glyph unicode="&#xb6;" horiz-adv-x="909" d="M0 1042q0 270 182 377q84 47 207 47h518v-174h-116v-1700h-142v1700h-182v-1700h-135v1045q-152 10 -242 120.5t-90 284.5z" />
<glyph unicode="&#xb7;" horiz-adv-x="473" d="M152 618v205h170v-205h-170z" />
<glyph unicode="&#xb8;" horiz-adv-x="559" d="M88 -410l8 117h19l63 -4q127 0 127 76q0 66 -115 67h-14l43 177h111l-27 -107q66 -8 102.5 -48t36.5 -101q0 -82 -65.5 -134.5t-167.5 -52.5q-66 0 -121 10z" />
<glyph unicode="&#xb9;" horiz-adv-x="559" d="M86 1174v124q57 23 117.5 75t97.5 112h88v-752h-119v555q-84 -83 -184 -114z" />
<glyph unicode="&#xba;" horiz-adv-x="612" d="M37 1110q0 174 73.5 277.5t194.5 103.5t195.5 -103.5t74.5 -271.5t-73.5 -272.5t-194.5 -104.5q-123 0 -196.5 101.5t-73.5 269.5zM160 1114q0 -242 147 -242q145 0 146 244q0 242 -148 242q-145 0 -145 -244z" />
<glyph unicode="&#xbb;" d="M115 72l217 456l-217 457h125l256 -457l-256 -456h-125zM434 985h121l262 -457l-262 -456h-119l213 456z" />
<glyph unicode="&#xbc;" horiz-adv-x="1398" d="M88 1174v124q55 23 115.5 75t97.5 112h88v-752h-119v555q-82 -81 -182 -114zM207 -57l903 1548h127l-901 -1548h-129zM858 123v123l332 473h100v-488h86v-108h-86v-154h-119v154h-313zM983 231h188v263h-4z" />
<glyph unicode="&#xbd;" horiz-adv-x="1398" d="M86 1174v124q57 23 117.5 75t97.5 112h88v-752h-119v555q-84 -83 -184 -114zM186 -57l904 1548h129l-904 -1548h-129zM860 -31q12 131 211 307q127 113 152 154q16 27 16 59q0 53 -30.5 83t-84 30t-80 -24.5t-45.5 -90.5l-122 17q25 115 84 165t165 50q115 0 177.5 -53.5 t62.5 -151.5q0 -78 -40 -143.5t-148 -161.5l-54 -45q-43 -41 -71 -74h317v-121h-510z" />
<glyph unicode="&#xbe;" horiz-adv-x="1398" d="M27 930l120 14q10 -43 23 -59q31 -53 102 -54q55 0 92 38t37 96q0 78 -59 98q-23 10 -55 12h-6l-52 -2h-4l19 109h6q55 0 89 27.5t34 74.5q0 39 -27 63.5t-72 24.5q-47 0 -72.5 -21.5t-43.5 -78.5l-117 22q35 109 85 150t150 41q106 0 165 -49.5t59 -137.5 q0 -125 -113 -159v-4q143 -41 143 -189q0 -102 -69.5 -166.5t-177.5 -64.5q-219 0 -256 215zM207 -57l903 1548h127l-901 -1548h-129zM858 123v123l332 473h100v-488h86v-108h-86v-154h-119v154h-313zM983 231h188v263h-4z" />
<glyph unicode="&#xbf;" horiz-adv-x="1032" d="M129 -29q0 102 39 181t143 192q92 102 115 157.5t25 198.5h141v-51q0 -139 -37 -222t-154 -208q-70 -76 -95 -125t-25 -110q0 -109 68.5 -187t162.5 -78q205 0 242 295l151 -20q-23 -205 -123 -314.5t-268 -109.5q-166 0 -275.5 113.5t-109.5 287.5zM432 856v205h168 v-205h-168z" />
<glyph unicode="&#xc0;" horiz-adv-x="1120" d="M-2 0l461 1466h172l491 -1466h-180l-141 444h-502l-133 -444h-168zM340 1880h197l110 -281h-119zM344 602h408l-125 406q-57 184 -84 305h-4q-4 -53 -17 -101q-20 -96 -45 -180z" />
<glyph unicode="&#xc1;" horiz-adv-x="1120" d="M-2 0l461 1466h172l491 -1466h-180l-141 444h-502l-133 -444h-168zM344 602h408l-125 406q-57 184 -84 305h-4q-4 -53 -17 -101q-20 -96 -45 -180zM455 1599l108 281h195l-180 -281h-123z" />
<glyph unicode="&#xc2;" horiz-adv-x="1120" d="M-2 0l461 1466h172l491 -1466h-180l-141 444h-502l-133 -444h-168zM301 1599l176 281h158l184 -281h-166l-92 170l-92 -170h-168zM344 602h408l-125 406q-57 184 -84 305h-4q-4 -53 -17 -101q-20 -96 -45 -180z" />
<glyph unicode="&#xc3;" horiz-adv-x="1120" d="M-2 0l461 1466h172l491 -1466h-180l-141 444h-502l-133 -444h-168zM285 1624v14q2 94 48 154.5t118 60.5q51 0 127 -47l24 -14q33 -23 66 -23q29 0 42 18.5t17 67.5h107q-2 -109 -44 -169t-116 -60q-49 0 -121 47l-31 21q-41 27 -65 26q-29 0 -45.5 -24.5t-16.5 -63.5v-8 h-110zM344 602h408l-125 406q-57 184 -84 305h-4q-4 -53 -17 -101q-20 -96 -45 -180z" />
<glyph unicode="&#xc4;" horiz-adv-x="1120" d="M-2 0l461 1466h172l491 -1466h-180l-141 444h-502l-133 -444h-168zM313 1675v205h154v-205h-154zM344 602h408l-125 406q-57 184 -84 305h-4q-4 -53 -17 -101q-20 -96 -45 -180zM621 1675v205h153v-205h-153z" />
<glyph unicode="&#xc5;" horiz-adv-x="1120" d="M-2 0l461 1466h172l491 -1466h-180l-141 444h-502l-133 -444h-168zM344 602h408l-125 406q-57 184 -84 305h-4q-4 -53 -17 -101q-20 -96 -45 -180zM401 1741q0 76 43 129t104.5 53t104.5 -54t43 -130t-43 -129.5t-104.5 -53.5t-104.5 53.5t-43 131.5zM463 1741 q0 -45 26.5 -77t61.5 -32t60.5 32t25.5 77t-25.5 76.5t-60.5 31.5t-61.5 -31.5t-26.5 -76.5z" />
<glyph unicode="&#xc6;" horiz-adv-x="1679" d="M0 0l580 1466h985v-174h-604v-450h561v-172h-561v-498h626v-172h-786v424h-465l-164 -424h-172zM403 596h398v696h-119z" />
<glyph unicode="&#xc7;" horiz-adv-x="1206" d="M82 743q0 340 154.5 544t414.5 204q178 0 302 -111.5t171 -316.5l-155 -45q-41 158 -119 232.5t-203 74.5q-188 0 -293.5 -153.5t-105.5 -428.5q0 -319 117 -467q104 -135 270 -135q96 0 175 52.5t124 144.5q33 74 53 176l158 -49q-51 -240 -179 -364t-325 -126l-14 -59 q66 -8 102.5 -48t36.5 -101q0 -82 -65.5 -134.5t-168.5 -52.5q-66 0 -120 10l8 117h18l64 -4q127 0 127 76q0 66 -115 67h-14l32 138q-201 33 -319 225q-131 208 -131 534z" />
<glyph unicode="&#xc8;" horiz-adv-x="1120" d="M133 0v1466h871v-174h-711v-448h663v-172h-663v-500h737v-172h-897zM373 1880h196l111 -281h-119z" />
<glyph unicode="&#xc9;" horiz-adv-x="1120" d="M133 0v1466h871v-174h-711v-448h663v-172h-663v-500h737v-172h-897zM496 1599l108 281h195l-181 -281h-122z" />
<glyph unicode="&#xca;" horiz-adv-x="1120" d="M133 0v1466h871v-174h-711v-448h663v-172h-663v-500h737v-172h-897zM322 1599l176 281h157l185 -281h-166l-92 170l-93 -170h-167z" />
<glyph unicode="&#xcb;" horiz-adv-x="1120" d="M133 0v1466h871v-174h-711v-448h663v-172h-663v-500h737v-172h-897zM354 1675v205h154v-205h-154zM662 1675v205h153v-205h-153z" />
<glyph unicode="&#xcc;" horiz-adv-x="473" d="M31 1880h196l111 -281h-119zM158 0v1466h159v-1466h-159z" />
<glyph unicode="&#xcd;" horiz-adv-x="473" d="M156 1599l108 281h195l-180 -281h-123zM158 0v1466h159v-1466h-159z" />
<glyph unicode="&#xce;" horiz-adv-x="473" d="M-20 1599l176 281h157l185 -281h-166l-92 170l-93 -170h-167zM158 0v1466h159v-1466h-159z" />
<glyph unicode="&#xcf;" horiz-adv-x="473" d="M6 1673v205h154v-205h-154zM158 0v1466h159v-1466h-159zM313 1673v205h154v-205h-154z" />
<glyph unicode="&#xd0;" horiz-adv-x="1206" d="M-4 668v131h133v667h414q139 0 221 -22q168 -51 263 -236.5t95 -464.5q0 -408 -180 -604q-104 -111 -248 -133q-43 -6 -131 -6h-434v668h-133zM289 172h256q115 0 184.5 25.5t114.5 85.5q115 152 114 462q0 299 -116 441q-51 63 -112.5 84.5t-188.5 21.5h-252v-493h332 v-131h-332v-496z" />
<glyph unicode="&#xd1;" horiz-adv-x="1206" d="M127 0v1466h164l627 -1151h4v1151h153v-1466h-164l-626 1151h-4v-1151h-154zM346 1624v14q2 94 48 154.5t118 60.5q51 0 127 -47l25 -14q33 -23 65 -23q29 0 42 18.5t17 67.5h107q-2 -109 -44 -169t-116 -60q-49 0 -121 47l-30 21q-41 27 -66 26q-29 0 -45 -24.5 t-16 -63.5v-8h-111z" />
<glyph unicode="&#xd2;" horiz-adv-x="1312" d="M82 729q0 342 158.5 552t416.5 210q256 0 415 -210t159 -550q0 -336 -159 -546t-415 -210q-254 0 -414.5 211t-160.5 543zM246 729q0 -238 82 -381q115 -207 327 -207q188 0 300 161t112 433q0 270 -106 424q-119 166 -302 166q-193 0 -303 -158.5t-110 -437.5zM446 1880 h197l111 -281h-119z" />
<glyph unicode="&#xd3;" horiz-adv-x="1312" d="M82 729q0 342 158.5 552t416.5 210q256 0 415 -210t159 -550q0 -336 -159 -546t-415 -210q-254 0 -414.5 211t-160.5 543zM246 729q0 -238 82 -381q115 -207 327 -207q188 0 300 161t112 433q0 270 -106 424q-119 166 -302 166q-193 0 -303 -158.5t-110 -437.5zM551 1599 l108 281h195l-180 -281h-123z" />
<glyph unicode="&#xd4;" horiz-adv-x="1312" d="M82 729q0 342 158.5 552t416.5 210q256 0 415 -210t159 -550q0 -336 -159 -546t-415 -210q-254 0 -414.5 211t-160.5 543zM246 729q0 -238 82 -381q115 -207 327 -207q188 0 300 161t112 433q0 270 -106 424q-119 166 -302 166q-193 0 -303 -158.5t-110 -437.5zM397 1599 l176 281h158l184 -281h-165l-93 170l-92 -170h-168z" />
<glyph unicode="&#xd5;" horiz-adv-x="1312" d="M82 729q0 342 158.5 552t416.5 210q256 0 415 -210t159 -550q0 -336 -159 -546t-415 -210q-254 0 -414.5 211t-160.5 543zM246 729q0 -238 82 -381q115 -207 327 -207q188 0 300 161t112 433q0 270 -106 424q-119 166 -302 166q-193 0 -303 -158.5t-110 -437.5zM406 1624 v14q2 94 48 154.5t117 60.5q51 0 127 -47l25 -14q35 -23 65 -23q29 0 42.5 18.5t17.5 67.5h106q-2 -109 -44 -169t-115 -60q-49 0 -121 47l-31 21q-41 27 -65 26q-29 0 -45.5 -24.5t-16.5 -63.5v-8h-110z" />
<glyph unicode="&#xd6;" horiz-adv-x="1312" d="M82 729q0 342 158.5 552t416.5 210q256 0 415 -210t159 -550q0 -336 -159 -546t-415 -210q-254 0 -414.5 211t-160.5 543zM246 729q0 -238 82 -381q115 -207 327 -207q188 0 300 161t112 433q0 270 -106 424q-119 166 -302 166q-193 0 -303 -158.5t-110 -437.5zM424 1675 v205h154v-205h-154zM731 1675v205h154v-205h-154z" />
<glyph unicode="&#xd7;" horiz-adv-x="978" d="M131 410l258 313l-256 315l98 123l258 -315l256 313l101 -121l-256 -313l256 -313l-98 -123l-259 315l-258 -315z" />
<glyph unicode="&#xd8;" horiz-adv-x="1312" d="M70 25l143 196q-63 117 -84 176q-51 143 -51 330q0 344 159.5 554t419.5 210q162 0 285 -88q45 -35 84 -72l137 189l82 -84l-145 -197q49 -90 57 -113q72 -162 72 -393q0 -338 -160 -548t-418 -210q-160 0 -280 84q-45 35 -84 70l-137 -188zM242 731q0 -115 15 -190.5 t58 -178.5l613 836q-76 72 -133.5 99.5t-137.5 27.5q-195 0 -305 -159t-110 -435zM385 262q119 -121 266 -121q188 0 301 160t113 428q0 205 -70 365z" />
<glyph unicode="&#xd9;" horiz-adv-x="1206" d="M131 618v848h160v-845q0 -184 33 -291q25 -84 98.5 -132t173.5 -48q233 0 291 180q31 100 31 291v845h159v-848q0 -246 -53 -385q-47 -123 -155.5 -190.5t-258.5 -67.5q-160 0 -270.5 67t-155.5 191q-53 145 -53 385zM397 1880h197l111 -281h-119z" />
<glyph unicode="&#xda;" horiz-adv-x="1206" d="M131 618v848h160v-845q0 -184 33 -291q25 -84 98.5 -132t173.5 -48q233 0 291 180q31 100 31 291v845h159v-848q0 -246 -53 -385q-47 -123 -155.5 -190.5t-258.5 -67.5q-160 0 -270.5 67t-155.5 191q-53 145 -53 385zM502 1599l108 281h195l-180 -281h-123z" />
<glyph unicode="&#xdb;" horiz-adv-x="1206" d="M131 618v848h160v-845q0 -184 33 -291q25 -84 98.5 -132t173.5 -48q233 0 291 180q31 100 31 291v845h159v-848q0 -246 -53 -385q-47 -123 -155.5 -190.5t-258.5 -67.5q-160 0 -270.5 67t-155.5 191q-53 145 -53 385zM344 1599l176 281h158l184 -281h-166l-92 170 l-92 -170h-168z" />
<glyph unicode="&#xdc;" horiz-adv-x="1206" d="M131 618v848h160v-845q0 -184 33 -291q25 -84 98.5 -132t173.5 -48q233 0 291 180q31 100 31 291v845h159v-848q0 -246 -53 -385q-47 -123 -155.5 -190.5t-258.5 -67.5q-160 0 -270.5 67t-155.5 191q-53 145 -53 385zM365 1675v205h153v-205h-153zM672 1675v205h153v-205 h-153z" />
<glyph unicode="&#xdd;" horiz-adv-x="1120" d="M4 1466h195l235 -442q66 -121 123 -248q12 29 64 129q47 92 69 129l232 432h186l-481 -845v-621h-158v621zM469 1599l109 281h194l-180 -281h-123z" />
<glyph unicode="&#xde;" horiz-adv-x="1120" d="M129 0v1466h160v-299h295q178 0 262 -39q94 -43 147.5 -146t53.5 -241q0 -133 -50.5 -235.5t-138.5 -153.5q-92 -53 -262 -53h-307v-299h-160zM289 471h311q283 0 283 264q0 84 -32 148.5t-89 91.5q-43 20 -166 20h-307v-524z" />
<glyph unicode="&#xdf;" horiz-adv-x="1032" d="M125 0v999q0 170 37 281q35 96 121 153.5t194 57.5q129 0 216 -81t87 -204q0 -98 -45 -194l-43 -90q-37 -80 -37 -123q0 -72 84 -135l66 -54q92 -74 130 -140.5t38 -156.5q0 -143 -86 -240.5t-213 -97.5q-98 0 -177 63.5t-120 176.5l127 74q74 -166 166 -166q63 0 108 51 t45 123q0 86 -71 145l-93 78q-156 129 -155 248q0 70 61 201q70 147 70 217q0 68 -47 112.5t-117 44.5q-55 0 -101 -29.5t-65 -76.5q-33 -86 -33 -246v-991h-147z" />
<glyph unicode="&#xe0;" d="M61 279q0 201 160 284q59 31 182 49q84 10 166 31q49 12 99 31v45q0 109 -39 153q-55 66 -168 66q-154 0 -203 -107q-16 -39 -27 -96l-145 23q16 92 39 137q88 190 356 190q217 0 293 -131q33 -55 39 -139q4 -45 4 -129v-242v-225q2 -123 45 -219h-153q-23 57 -29 131 q-150 -156 -322 -156q-135 0 -216 83.5t-81 220.5zM217 285q0 -76 48 -122t130 -46q160 0 236 141q37 72 37 209v65q-29 -14 -88 -30q-98 -27 -154 -37q-115 -20 -154 -53q-55 -45 -55 -127zM258 1475h196l111 -281h-119z" />
<glyph unicode="&#xe1;" d="M61 279q0 201 160 284q59 31 182 49q84 10 166 31q49 12 99 31v45q0 109 -39 153q-55 66 -168 66q-154 0 -203 -107q-16 -39 -27 -96l-145 23q16 92 39 137q88 190 356 190q217 0 293 -131q33 -55 39 -139q4 -45 4 -129v-242v-225q2 -123 45 -219h-153q-23 57 -29 131 q-150 -156 -322 -156q-135 0 -216 83.5t-81 220.5zM217 285q0 -76 48 -122t130 -46q160 0 236 141q37 72 37 209v65q-29 -14 -88 -30q-98 -27 -154 -37q-115 -20 -154 -53q-55 -45 -55 -127zM366 1194l109 281h194l-180 -281h-123z" />
<glyph unicode="&#xe2;" d="M61 279q0 201 160 284q59 31 182 49q84 10 166 31q49 12 99 31v45q0 109 -39 153q-55 66 -168 66q-154 0 -203 -107q-16 -39 -27 -96l-145 23q16 92 39 137q88 190 356 190q217 0 293 -131q33 -55 39 -139q4 -45 4 -129v-242v-225q2 -123 45 -219h-153q-23 57 -29 131 q-150 -156 -322 -156q-135 0 -216 83.5t-81 220.5zM217 285q0 -76 48 -122t130 -46q160 0 236 141q37 72 37 209v65q-29 -14 -88 -30q-98 -27 -154 -37q-115 -20 -154 -53q-55 -45 -55 -127zM204 1194l177 281h157l185 -281h-166l-92 170l-93 -170h-168z" />
<glyph unicode="&#xe3;" d="M61 279q0 201 160 284q59 31 182 49q84 10 166 31q49 12 99 31v45q0 109 -39 153q-55 66 -168 66q-154 0 -203 -107q-16 -39 -27 -96l-145 23q16 92 39 137q88 190 356 190q217 0 293 -131q33 -55 39 -139q4 -45 4 -129v-242v-225q2 -123 45 -219h-153q-23 57 -29 131 q-150 -156 -322 -156q-135 0 -216 83.5t-81 220.5zM217 285q0 -76 48 -122t130 -46q160 0 236 141q37 72 37 209v65q-29 -14 -88 -30q-98 -27 -154 -37q-115 -20 -154 -53q-55 -45 -55 -127zM188 1219v14q2 94 48 154.5t118 60.5q51 0 127 -47l25 -15q35 -23 65 -22 q29 0 42 18.5t17 67.5h107q-2 -109 -44 -169t-116 -60q-49 0 -121 47l-30 20q-41 27 -66 27q-29 0 -45 -24.5t-16 -63.5v-8h-111z" />
<glyph unicode="&#xe4;" d="M61 279q0 201 160 284q59 31 182 49q84 10 166 31q49 12 99 31v45q0 109 -39 153q-55 66 -168 66q-154 0 -203 -107q-16 -39 -27 -96l-145 23q16 92 39 137q88 190 356 190q217 0 293 -131q33 -55 39 -139q4 -45 4 -129v-242v-225q2 -123 45 -219h-153q-23 57 -29 131 q-150 -156 -322 -156q-135 0 -216 83.5t-81 220.5zM217 285q0 -76 48 -122t130 -46q160 0 236 141q37 72 37 209v65q-29 -14 -88 -30q-98 -27 -154 -37q-115 -20 -154 -53q-55 -45 -55 -127zM233 1270v205h154v-205h-154zM540 1270v205h154v-205h-154z" />
<glyph unicode="&#xe5;" d="M61 279q0 201 160 284q59 31 182 49q84 10 166 31q49 12 99 31v45q0 109 -39 153q-55 66 -168 66q-154 0 -203 -107q-16 -39 -27 -96l-145 23q16 92 39 137q88 190 356 190q217 0 293 -131q33 -55 39 -139q4 -45 4 -129v-242v-225q2 -123 45 -219h-153q-23 57 -29 131 q-150 -156 -322 -156q-135 0 -216 83.5t-81 220.5zM217 285q0 -76 48 -122t130 -46q160 0 236 141q37 72 37 209v65q-29 -14 -88 -30q-98 -27 -154 -37q-115 -20 -154 -53q-55 -45 -55 -127zM317 1335q0 76 43 129.5t104.5 53.5t104.5 -54.5t43 -130.5t-43 -129t-104.5 -53 t-104.5 53t-43 131zM379 1335q0 -45 26.5 -76.5t61 -31.5t60.5 31.5t26 76.5t-26 77t-60.5 32t-61 -32t-26.5 -77z" />
<glyph unicode="&#xe6;" horiz-adv-x="1486" d="M55 279q0 197 164 282q70 35 221 60q119 16 207 49q2 18 2 39q-2 125 -37 170q-43 59 -157 59q-150 0 -197 -86q-20 -43 -35 -119l-143 21q20 100 47 153q86 178 334 178q227 0 297 -143q109 143 278 143q231 0 328 -231q61 -145 61 -309q0 -29 -2 -60h-628v-18 q2 -156 45 -225q74 -117 207 -117q82 0 140 59.5t81 165.5l153 -24q-39 -170 -138 -260.5t-245 -90.5q-199 0 -323 199q-166 -199 -363 -199q-135 0 -213 84q-84 91 -84 220zM213 285q0 -76 46 -121t122 -45q139 0 215 108q55 80 55 242l-2 63q-29 -14 -80 -30 q-47 -14 -182 -41q-82 -16 -117 -43q-57 -47 -57 -133zM795 633h479q-8 102 -31 162q-27 66 -82 104.5t-123 38.5q-106 0 -170.5 -81t-72.5 -224z" />
<glyph unicode="&#xe7;" horiz-adv-x="839" d="M66 532q0 289 122 429q106 125 275 124q94 0 173 -45t120 -120q37 -61 53 -170l-143 -27q-41 215 -197 215q-121 0 -186.5 -105.5t-65.5 -297.5q0 -199 62.5 -304.5t181.5 -105.5q63 0 114.5 38t75.5 101q18 49 27 125l145 -22q-23 -184 -120 -287t-244 -105l-15 -59 q66 -8 103 -48t37 -101q0 -82 -65.5 -134.5t-168.5 -52.5q-66 0 -121 10l9 117h18l63 -4q127 0 127 76q0 66 -114 67h-15l35 144q-137 41 -211.5 181t-74.5 361z" />
<glyph unicode="&#xe8;" d="M61 520q0 260 111 412.5t297 152.5q180 0 287.5 -150.5t107.5 -402.5v-47h-651q10 -170 79.5 -265t184.5 -95q168 0 230 217l151 -23q-37 -168 -135 -256t-248 -88q-193 0 -303.5 145.5t-110.5 399.5zM221 633h488q-4 76 -23 135q-25 76 -85 123t-134 47q-100 0 -169 -85 t-77 -220zM258 1475h196l111 -281h-119z" />
<glyph unicode="&#xe9;" d="M61 520q0 260 111 412.5t297 152.5q180 0 287.5 -150.5t107.5 -402.5v-47h-651q10 -170 79.5 -265t184.5 -95q168 0 230 217l151 -23q-37 -168 -135 -256t-248 -88q-193 0 -303.5 145.5t-110.5 399.5zM221 633h488q-4 76 -23 135q-25 76 -85 123t-134 47q-100 0 -169 -85 t-77 -220zM366 1194l109 281h194l-180 -281h-123z" />
<glyph unicode="&#xea;" d="M61 520q0 260 111 412.5t297 152.5q180 0 287.5 -150.5t107.5 -402.5v-47h-651q10 -170 79.5 -265t184.5 -95q168 0 230 217l151 -23q-37 -168 -135 -256t-248 -88q-193 0 -303.5 145.5t-110.5 399.5zM221 633h488q-4 76 -23 135q-25 76 -85 123t-134 47q-100 0 -169 -85 t-77 -220zM204 1194l177 281h157l185 -281h-166l-92 170l-93 -170h-168z" />
<glyph unicode="&#xeb;" d="M61 520q0 260 111 412.5t297 152.5q180 0 287.5 -150.5t107.5 -402.5v-47h-651q10 -170 79.5 -265t184.5 -95q168 0 230 217l151 -23q-37 -168 -135 -256t-248 -88q-193 0 -303.5 145.5t-110.5 399.5zM221 633h488q-4 76 -23 135q-25 76 -85 123t-134 47q-100 0 -169 -85 t-77 -220zM233 1270v205h154v-205h-154zM540 1270v205h154v-205h-154z" />
<glyph unicode="&#xec;" horiz-adv-x="473" d="M162 0v1061h147v-1061h-147zM31 1475h196l111 -281h-119z" />
<glyph unicode="&#xed;" horiz-adv-x="473" d="M162 0v1061h147v-1061h-147zM139 1194l109 281h194l-180 -281h-123z" />
<glyph unicode="&#xee;" horiz-adv-x="473" d="M162 0v1061h147v-1061h-147zM-23 1194l177 281h157l185 -281h-166l-92 170l-93 -170h-168z" />
<glyph unicode="&#xef;" horiz-adv-x="473" d="M162 0v1061h147v-1061h-147zM6 1270v205h154v-205h-154zM313 1270v205h154v-205h-154z" />
<glyph unicode="&#xf0;" d="M59 516q0 266 113 412q102 133 258 133q86 0 170 -57l4 4q-45 111 -115 209l-227 -127l-35 102l195 108q-90 100 -170 166h178q61 -53 102 -102l177 102l36 -102l-141 -82q262 -367 262 -758q0 -248 -110.5 -398.5t-292.5 -150.5q-170 0 -281 129q-123 150 -123 412z M211 512q0 -168 57 -270q31 -53 84.5 -86t110.5 -33q115 0 183.5 110.5t68.5 296.5q0 178 -71 286t-187 108q-115 0 -180.5 -109.5t-65.5 -302.5z" />
<glyph unicode="&#xf1;" d="M111 0v1061h133v-150h4q90 174 274 174q88 0 158 -42t100 -113q25 -53 32 -105.5t7 -171.5v-653h-147v645q0 139 -33 201q-43 84 -150 84q-63 0 -119.5 -37t-80.5 -96q-31 -84 -31 -217v-580h-147zM188 1219v14q2 94 48 154.5t118 60.5q51 0 127 -47l25 -15 q35 -23 65 -22q29 0 42 18.5t17 67.5h107q-2 -109 -44 -169t-116 -60q-49 0 -121 47l-30 20q-41 27 -66 27q-29 0 -45 -24.5t-16 -63.5v-8h-111z" />
<glyph unicode="&#xf2;" d="M55 530q0 260 103 398q117 158 305 157q219 0 338 -204q72 -131 71 -338q0 -270 -102 -410q-117 -158 -307 -158q-104 0 -192.5 54.5t-143.5 150.5q-72 131 -72 350zM207 530q0 -190 69.5 -297.5t190.5 -107.5q117 0 185.5 109.5t68.5 295.5q0 193 -69.5 300.5 t-190.5 107.5q-117 0 -185.5 -111t-68.5 -297zM258 1475h196l111 -281h-119z" />
<glyph unicode="&#xf3;" d="M55 530q0 260 103 398q117 158 305 157q219 0 338 -204q72 -131 71 -338q0 -270 -102 -410q-117 -158 -307 -158q-104 0 -192.5 54.5t-143.5 150.5q-72 131 -72 350zM207 530q0 -190 69.5 -297.5t190.5 -107.5q117 0 185.5 109.5t68.5 295.5q0 193 -69.5 300.5 t-190.5 107.5q-117 0 -185.5 -111t-68.5 -297zM366 1194l109 281h194l-180 -281h-123z" />
<glyph unicode="&#xf4;" d="M55 530q0 260 103 398q117 158 305 157q219 0 338 -204q72 -131 71 -338q0 -270 -102 -410q-117 -158 -307 -158q-104 0 -192.5 54.5t-143.5 150.5q-72 131 -72 350zM207 530q0 -190 69.5 -297.5t190.5 -107.5q117 0 185.5 109.5t68.5 295.5q0 193 -69.5 300.5 t-190.5 107.5q-117 0 -185.5 -111t-68.5 -297zM204 1194l177 281h157l185 -281h-166l-92 170l-93 -170h-168z" />
<glyph unicode="&#xf5;" d="M55 530q0 260 103 398q117 158 305 157q219 0 338 -204q72 -131 71 -338q0 -270 -102 -410q-117 -158 -307 -158q-104 0 -192.5 54.5t-143.5 150.5q-72 131 -72 350zM207 530q0 -190 69.5 -297.5t190.5 -107.5q117 0 185.5 109.5t68.5 295.5q0 193 -69.5 300.5 t-190.5 107.5q-117 0 -185.5 -111t-68.5 -297zM188 1219v14q2 94 48 154.5t118 60.5q51 0 127 -47l25 -15q35 -23 65 -22q29 0 42 18.5t17 67.5h107q-2 -109 -44 -169t-116 -60q-49 0 -121 47l-30 20q-41 27 -66 27q-29 0 -45 -24.5t-16 -63.5v-8h-111z" />
<glyph unicode="&#xf6;" d="M55 530q0 260 103 398q117 158 305 157q219 0 338 -204q72 -131 71 -338q0 -270 -102 -410q-117 -158 -307 -158q-104 0 -192.5 54.5t-143.5 150.5q-72 131 -72 350zM207 530q0 -190 69.5 -297.5t190.5 -107.5q117 0 185.5 109.5t68.5 295.5q0 193 -69.5 300.5 t-190.5 107.5q-117 0 -185.5 -111t-68.5 -297zM233 1270v205h154v-205h-154zM540 1270v205h154v-205h-154z" />
<glyph unicode="&#xf7;" horiz-adv-x="978" d="M92 639v168h795v-168h-795zM406 319v205h167v-205h-167zM406 922v204h167v-204h-167z" />
<glyph unicode="&#xf8;" horiz-adv-x="1032" d="M109 516q0 274 104 412q113 158 301 157q121 0 244 -86l80 127l80 -69l-89 -137q55 -90 76 -174t21 -216q0 -258 -103 -397q-117 -158 -311 -158q-125 0 -227 82l-84 -137l-78 72l88 141q-102 147 -102 383zM260 535q0 -150 43 -254l371 585q-74 72 -156 72 q-119 0 -188.5 -108.5t-69.5 -294.5zM369 186q61 -61 143 -61q123 0 192.5 108.5t69.5 301.5q0 127 -39 235z" />
<glyph unicode="&#xf9;" d="M109 403v658h147v-588q0 -160 12 -211q16 -59 61.5 -95t106.5 -36q63 0 120.5 40t80.5 101q29 74 29 222v567h147v-1061h-131v156h-4q-96 -180 -275 -181q-84 0 -154.5 43t-101.5 113q-25 53 -31.5 106t-6.5 166zM258 1475h196l111 -281h-119z" />
<glyph unicode="&#xfa;" d="M109 403v658h147v-588q0 -160 12 -211q16 -59 61.5 -95t106.5 -36q63 0 120.5 40t80.5 101q29 74 29 222v567h147v-1061h-131v156h-4q-96 -180 -275 -181q-84 0 -154.5 43t-101.5 113q-25 53 -31.5 106t-6.5 166zM366 1194l109 281h194l-180 -281h-123z" />
<glyph unicode="&#xfb;" d="M109 403v658h147v-588q0 -160 12 -211q16 -59 61.5 -95t106.5 -36q63 0 120.5 40t80.5 101q29 74 29 222v567h147v-1061h-131v156h-4q-96 -180 -275 -181q-84 0 -154.5 43t-101.5 113q-25 53 -31.5 106t-6.5 166zM204 1194l177 281h157l185 -281h-166l-92 170l-93 -170 h-168z" />
<glyph unicode="&#xfc;" d="M109 403v658h147v-588q0 -160 12 -211q16 -59 61.5 -95t106.5 -36q63 0 120.5 40t80.5 101q29 74 29 222v567h147v-1061h-131v156h-4q-96 -180 -275 -181q-84 0 -154.5 43t-101.5 113q-25 53 -31.5 106t-6.5 166zM233 1270v205h154v-205h-154zM540 1270v205h154v-205 h-154z" />
<glyph unicode="&#xfd;" horiz-adv-x="839" d="M27 1061h159l183 -615q35 -123 59 -245h4q25 129 60 243l186 617h147l-331 -1079l-31 -101q-53 -172 -112.5 -241.5t-151.5 -69.5q-45 0 -95 20l-16 170q49 -16 84 -16q80 0 119 61q23 33 53 150l14 43zM323 1194l109 281h194l-180 -281h-123z" />
<glyph unicode="&#xfe;" d="M111 -408v1874h147v-516h4q57 76 108.5 105.5t125.5 29.5q168 0 269 -148.5t101 -395.5q0 -250 -105.5 -408t-273.5 -158q-70 0 -120 30t-105 106h-4v-519h-147zM244 512q0 -178 63.5 -282.5t171.5 -104.5q96 0 162 94q76 104 76 318q0 190 -63.5 298.5t-172.5 108.5 q-94 0 -164 -104q-73 -117 -73 -328z" />
<glyph unicode="&#xff;" horiz-adv-x="839" d="M27 1061h159l183 -615q35 -123 59 -245h4q25 129 60 243l186 617h147l-331 -1079l-31 -101q-53 -172 -112.5 -241.5t-151.5 -69.5q-45 0 -95 20l-16 170q49 -16 84 -16q80 0 119 61q23 33 53 150l14 43zM190 1270v205h154v-205h-154zM497 1270v205h154v-205h-154z" />
<glyph unicode="&#x131;" horiz-adv-x="473" d="M162 0v1061h147v-1061h-147z" />
<glyph unicode="&#x152;" horiz-adv-x="1679" d="M106 735q0 346 123 553q125 203 365 203q215 0 321 -223h5v198h682v-174h-535v-446h492v-174h-492v-500h559v-172h-706v211h-5q-104 -236 -323 -236q-276 0 -406 295q-80 189 -80 465zM270 733q0 -254 60 -393q92 -209 264 -209q96 0 176 83t109 214q31 141 30 305 q0 252 -59 393q-41 98 -109.5 153.5t-150.5 55.5q-70 0 -134.5 -45t-105.5 -121q-80 -147 -80 -436z" />
<glyph unicode="&#x153;" horiz-adv-x="1591" d="M66 520q0 266 109.5 415.5t303.5 149.5q106 0 192.5 -54t129.5 -148q115 203 319 202q186 0 294 -154.5t108 -422.5v-25h-643q2 -162 73.5 -260t186.5 -98q172 0 225 221l147 -27q-37 -168 -133 -256t-243 -88q-225 0 -334 201q-123 -201 -326 -201q-188 0 -298.5 147.5 t-110.5 397.5zM217 516q0 -180 70.5 -285.5t189.5 -105.5q113 0 182.5 113.5t69.5 298.5q0 182 -69.5 291.5t-186.5 109.5q-106 0 -176 -96q-80 -107 -80 -326zM885 631h481q-8 145 -71.5 226t-166 81t-168 -83t-75.5 -224z" />
<glyph unicode="&#x178;" horiz-adv-x="1120" d="M4 1466h195l235 -442q66 -121 123 -248q12 29 64 129q47 92 69 129l232 432h186l-481 -845v-621h-158v621zM330 1675v205h153v-205h-153zM637 1675v205h154v-205h-154z" />
<glyph unicode="&#x2c6;" horiz-adv-x="559" d="M20 1194l177 281h157l185 -281h-166l-92 170l-93 -170h-168z" />
<glyph unicode="&#x2da;" horiz-adv-x="559" d="M133 1335q0 76 43 129.5t104.5 53.5t104.5 -54.5t43 -130.5t-43 -129t-104.5 -53t-104.5 53t-43 131zM195 1335q0 -45 26.5 -76.5t61 -31.5t60.5 31.5t26 76.5t-26 77t-60.5 32t-61 -32t-26.5 -77z" />
<glyph unicode="&#x2dc;" horiz-adv-x="559" d="M4 1219v14q2 94 48 154.5t118 60.5q51 0 127 -47l25 -15q35 -23 65 -22q29 0 42 18.5t17 67.5h107q-2 -109 -44 -169t-116 -60q-49 0 -121 47l-30 20q-41 27 -66 27q-29 0 -45 -24.5t-16 -63.5v-8h-111z" />
<glyph unicode="&#x2000;" horiz-adv-x="960" />
<glyph unicode="&#x2001;" horiz-adv-x="1923" />
<glyph unicode="&#x2002;" horiz-adv-x="960" />
<glyph unicode="&#x2003;" horiz-adv-x="1923" />
<glyph unicode="&#x2004;" horiz-adv-x="641" />
<glyph unicode="&#x2005;" horiz-adv-x="479" />
<glyph unicode="&#x2006;" horiz-adv-x="319" />
<glyph unicode="&#x2007;" horiz-adv-x="319" />
<glyph unicode="&#x2008;" horiz-adv-x="239" />
<glyph unicode="&#x2009;" horiz-adv-x="382" />
<glyph unicode="&#x200a;" horiz-adv-x="106" />
<glyph unicode="&#x2010;" horiz-adv-x="559" d="M53 440v181h453v-181h-453z" />
<glyph unicode="&#x2011;" horiz-adv-x="559" d="M53 440v181h453v-181h-453z" />
<glyph unicode="&#x2012;" horiz-adv-x="559" d="M53 440v181h453v-181h-453z" />
<glyph unicode="&#x2013;" d="M-4 459v145h934v-145h-934z" />
<glyph unicode="&#x2014;" horiz-adv-x="1679" d="M0 459v145h1679v-145h-1679z" />
<glyph unicode="&#x2018;" horiz-adv-x="366" d="M104 1012v164q0 145 35 213q37 68 101 102l36 -70q-47 -25 -67.5 -69.5t-22.5 -130.5h76v-209h-158z" />
<glyph unicode="&#x2019;" horiz-adv-x="366" d="M88 1071q88 47 90 201h-76v209h158v-164q0 -145 -35 -213q-37 -68 -100 -103z" />
<glyph unicode="&#x201a;" horiz-adv-x="366" d="M88 -201q88 43 90 201h-76v209h158v-164q0 -145 -35 -213q-37 -68 -100 -102z" />
<glyph unicode="&#x201c;" horiz-adv-x="559" d="M68 1012v164q0 145 34 213q37 68 101 102l37 -70q-47 -25 -67.5 -69.5t-22.5 -130.5h77v-209h-159zM322 1012v164q0 147 36 213q33 68 99 102l37 -70q-88 -47 -91 -200h78v-209h-159z" />
<glyph unicode="&#x201d;" horiz-adv-x="559" d="M57 1071q88 47 90 201h-75v209h157v-164q0 -145 -34 -213q-37 -68 -101 -103zM311 1071q88 47 90 201h-75v209h157v-164q0 -145 -34 -213q-39 -70 -101 -103z" />
<glyph unicode="&#x201e;" horiz-adv-x="559" d="M57 -201q88 43 90 201h-75v209h157v-164q0 -145 -34 -213q-37 -68 -101 -102zM311 -201q47 25 68.5 71t23.5 130h-77v209h157v-164q0 -152 -34 -213q-37 -70 -101 -102z" />
<glyph unicode="&#x2022;" horiz-adv-x="593" d="M90 717q0 106 60.5 180t146.5 74t146.5 -74t60.5 -178q0 -106 -60.5 -180t-146.5 -74t-146.5 74t-60.5 178z" />
<glyph unicode="&#x2026;" horiz-adv-x="1679" d="M197 0v205h168v-205h-168zM756 0v205h168v-205h-168zM1315 0v205h168v-205h-168z" />
<glyph unicode="&#x202f;" horiz-adv-x="382" />
<glyph unicode="&#x2039;" horiz-adv-x="559" d="M76 526l258 459h123l-219 -459l219 -454h-123z" />
<glyph unicode="&#x203a;" horiz-adv-x="559" d="M102 72l220 458l-220 455h123l258 -455l-258 -458h-123z" />
<glyph unicode="&#x205f;" horiz-adv-x="479" />
<glyph unicode="&#x20ac;" horiz-adv-x="933" d="M-23 535l23 135h86q-2 16 -2 61v70h-107l23 135h96q39 262 191 410q152 145 366 145q143 0 256 -82l-35 -184q-100 100 -233 100q-141 0 -250 -104q-104 -104 -129 -285h559l-22 -135h-551v-131h528l-22 -135h-488q27 -188 127.5 -291t247.5 -103q141 0 233 99v-207 q-100 -57 -231 -58q-446 0 -541 560h-125z" />
<glyph unicode="&#x2122;" horiz-adv-x="1679" d="M184 1346v120h547v-120h-219v-695h-111v695h-217zM805 651v815h166l166 -651h4l162 651h159v-815h-102v684h-4l-168 -684h-101l-176 695h-4v-695h-102z" />
<glyph unicode="&#xe000;" horiz-adv-x="1060" d="M0 1060h1060v-1060h-1060v1060z" />
<glyph unicode="&#xfb01;" horiz-adv-x="839" d="M18 924v137h132v104q0 147 49 230q57 96 184 96q82 0 149 -23l-22 -153q-41 10 -80 10q-82 -2 -107.5 -39t-25.5 -156v-69h170v-137h-170v-924h-147v924h-132zM578 0v1061h147v-1061h-147zM578 1260v206h147v-206h-147z" />
<glyph unicode="&#xfb02;" horiz-adv-x="839" d="M18 924v137h132v104q0 147 47 230q57 96 184 96q84 0 151 -23l-24 -153q-39 10 -78 10q-82 -2 -107.5 -39t-25.5 -156v-69h170v-137h-170v-924h-147v924h-132zM575 0v1466h148v-1466h-148z" />
<glyph unicode="&#xfb03;" horiz-adv-x="1312" d="M1057 0v1061h147v-1061h-147zM1057 1260v206h147v-206h-147zM489 922v139h131v115q0 127 27 192q53 123 213 123q57 0 137 -18l-20 -158q-43 10 -88 10q-70 0 -96.5 -35t-26.5 -129v-100h170v-139h-170v-922h-146v922h-131zM16 922v139h131v115q0 127 27 192 q53 123 213 123q57 0 137 -18l-20 -158q-43 10 -88 10q-70 0 -96.5 -35t-26.5 -129v-100h170v-139h-170v-922h-146v922h-131z" />
<glyph unicode="&#xfb04;" horiz-adv-x="1312" d="M1052 0v1466h148v-1466h-148zM489 922v139h131v115q0 127 27 192q53 123 213 123q57 0 137 -18l-20 -158q-43 10 -88 10q-70 0 -96.5 -35t-26.5 -129v-100h170v-139h-170v-922h-146v922h-131zM16 922v139h131v115q0 127 27 192q53 123 213 123q57 0 137 -18l-20 -158 q-43 10 -88 10q-70 0 -96.5 -35t-26.5 -129v-100h170v-139h-170v-922h-146v922h-131z" />
</font>
</defs>
</svg>
